<svg width="30" height="30" viewBox="0 0 30 30" fill="none" xmlns="http://www.w3.org/2000/svg">
<path d="M28.3438 0H1.65625C0.742187 0 0 0.742187 0 1.65625V28.3438C0 29.2578 0.742187 30 1.65625 30H15V18.125H11.4141V13.75H15V10.5156C15 6.64063 17.6875 4.53125 21.1484 4.53125C22.8047 4.53125 24.5859 4.65625 25 4.71094V8.75781H22.2422C20.3594 8.75781 20 9.64844 20 10.9609V13.75H24.4844L23.8984 18.125H20V30H28.3438C29.2578 30 30 29.2578 30 28.3438V1.65625C30 0.742187 29.2578 0 28.3438 0Z" fill="white"/>
</svg>
