<svg width="31" height="30" viewBox="0 0 31 30" fill="none" xmlns="http://www.w3.org/2000/svg">
<g clip-path="url(#clip0)">
<path d="M15.9143 2.89895C19.8557 2.89895 20.3225 2.914 21.8792 2.98502C23.3183 3.0507 24.0999 3.29111 24.6201 3.49326C25.2612 3.72989 25.8412 4.10721 26.3173 4.59746C26.8075 5.0736 27.1849 5.65355 27.4215 6.29469C27.6236 6.81483 27.8641 7.59641 27.9297 9.03559C28.0007 10.5921 28.0158 11.0589 28.0158 15.0004C28.0158 18.9419 28.0007 19.4086 27.9297 20.9653C27.864 22.4045 27.6236 23.186 27.4215 23.7062C27.1759 24.3428 26.7998 24.9209 26.3173 25.4034C25.8348 25.8859 25.2567 26.262 24.6201 26.5076C24.0999 26.7098 23.3183 26.9502 21.8792 27.0158C20.3229 27.0869 19.8561 27.1019 15.9143 27.1019C11.9725 27.1019 11.5059 27.0869 9.94947 27.0158C8.51029 26.9502 7.72877 26.7097 7.20857 26.5076C6.56744 26.271 5.98748 25.8937 5.51135 25.4034C5.0211 24.9273 4.64378 24.3473 4.40715 23.7062C4.205 23.186 3.96453 22.4045 3.89891 20.9653C3.82789 19.4088 3.81283 18.9419 3.81283 15.0004C3.81283 11.0589 3.82789 10.5922 3.89891 9.03559C3.96459 7.59641 4.205 6.81488 4.40715 6.29469C4.64381 5.65352 5.02116 5.07354 5.51147 4.5974C5.9876 4.10715 6.56755 3.72984 7.20869 3.4932C7.72883 3.29106 8.51041 3.05059 9.94959 2.98496C11.5061 2.91395 11.973 2.89889 15.9144 2.89889L15.9143 2.89895ZM15.9144 0.239258C11.9056 0.239258 11.4027 0.25625 9.82854 0.328086C8.25734 0.399805 7.18438 0.649297 6.24547 1.01422C5.26054 1.38486 4.36832 1.96589 3.63102 2.71678C2.87996 3.45404 2.29877 4.34626 1.92799 5.33123C1.56336 6.2702 1.31387 7.34317 1.24244 8.91436C1.17031 10.4885 1.15332 10.9914 1.15332 15.0003C1.15332 19.0091 1.17031 19.512 1.24244 21.0862C1.31416 22.6573 1.56365 23.7303 1.92857 24.6692C2.29922 25.6541 2.88024 26.5464 3.63113 27.2837C4.36843 28.0346 5.26066 28.6156 6.24559 28.9862C7.18455 29.3512 8.25752 29.6006 9.82865 29.6724C11.4031 29.7442 11.9057 29.7612 15.9146 29.7612C19.9234 29.7612 20.4263 29.7442 22.0005 29.6724C23.5716 29.6006 24.6446 29.3512 25.5835 28.9862C26.5641 28.607 27.4546 28.0271 28.198 27.2837C28.9414 26.5403 29.5213 25.6498 29.9005 24.6692C30.2654 23.7303 30.5149 22.6573 30.5867 21.0862C30.6585 19.5117 30.6755 19.0091 30.6755 15.0003C30.6755 10.9914 30.6585 10.4885 30.5867 8.91436C30.5149 7.34317 30.2654 6.2702 29.9005 5.33129C29.5299 4.34636 28.9489 3.45414 28.198 2.71684C27.4606 1.9658 26.5684 1.38465 25.5833 1.01393C24.6444 0.649297 23.5714 0.399805 22.0002 0.328379C20.426 0.25625 19.9232 0.239258 15.9143 0.239258H15.9144Z" fill="white"/>
<path d="M15.914 7.41992C14.4148 7.41992 12.9493 7.86448 11.7028 8.69738C10.4562 9.53028 9.48469 10.7141 8.91098 12.0992C8.33727 13.4842 8.18716 15.0083 8.47963 16.4787C8.77211 17.9491 9.49403 19.2997 10.5541 20.3598C11.6142 21.4198 12.9648 22.1418 14.4352 22.4342C15.9056 22.7267 17.4296 22.5766 18.8147 22.0029C20.1998 21.4292 21.3836 20.4576 22.2165 19.2111C23.0494 17.9646 23.4939 16.4991 23.4939 14.9999C23.4939 12.9896 22.6953 11.0616 21.2738 9.64005C19.8523 8.21852 17.9243 7.41992 15.914 7.41992ZM15.914 19.9202C14.9408 19.9202 13.9895 19.6316 13.1804 19.0909C12.3713 18.5503 11.7406 17.7818 11.3683 16.8828C10.9959 15.9837 10.8984 14.9944 11.0883 14.04C11.2781 13.0855 11.7468 12.2088 12.4349 11.5207C13.123 10.8326 13.9997 10.364 14.9541 10.1741C15.9086 9.9843 16.8979 10.0817 17.797 10.4541C18.696 10.8266 19.4645 11.4572 20.0051 12.2663C20.5457 13.0755 20.8343 14.0268 20.8343 14.9999C20.8343 16.3048 20.3159 17.5563 19.3932 18.4791C18.4704 19.4018 17.2189 19.9202 15.914 19.9202Z" fill="white"/>
<path d="M23.7938 8.89219C24.772 8.89219 25.565 8.09916 25.565 7.1209C25.565 6.14264 24.772 5.34961 23.7938 5.34961C22.8155 5.34961 22.0225 6.14264 22.0225 7.1209C22.0225 8.09916 22.8155 8.89219 23.7938 8.89219Z" fill="white"/>
</g>
<defs>
<clipPath id="clip0">
<rect width="30" height="30" fill="white" transform="translate(0.914062)"/>
</clipPath>
</defs>
</svg>
